<svg width="426" height="70" viewBox="0 0 426 70" fill="none" xmlns="http://www.w3.org/2000/svg">
<path d="M18.984 69.864C13.288 69.864 8.84 68.168 5.64 64.776C2.44 61.384 0.84 56.2 0.84 49.224C0.84 45.768 1.256 42.536 2.088 39.528C2.92 36.52 4.168 33.864 5.832 31.56C7.496 29.256 9.544 27.464 11.976 26.184C14.472 24.84 17.352 24.168 20.616 24.168C22.984 24.168 25.128 24.68 27.048 25.704C28.968 26.664 30.696 28.488 32.232 31.176C33.832 33.864 35.368 37.8 36.84 42.984L33.096 43.56C31.816 39.976 30.536 37.096 29.256 34.92C28.04 32.68 26.728 31.08 25.32 30.12C23.976 29.096 22.408 28.584 20.616 28.584C18.952 28.584 17.32 29.096 15.72 30.12C14.184 31.08 12.904 32.84 11.88 35.4C10.856 37.896 10.344 41.48 10.344 46.152C10.344 51.144 10.888 55.048 11.976 57.864C13.128 60.616 14.472 62.536 16.008 63.624C17.544 64.712 18.952 65.256 20.232 65.256C21.512 65.256 22.696 64.712 23.784 63.624C24.872 62.472 26.024 60.488 27.24 57.672C28.456 54.856 29.832 50.888 31.368 45.768C32.904 40.776 34.12 36.872 35.016 34.056C35.912 31.176 36.648 29.096 37.224 27.816C37.8 26.472 38.312 25.576 38.76 25.128C39.208 24.68 39.752 24.36 40.392 24.168C41.352 24.488 42.664 24.712 44.328 24.84C46.056 24.968 47.88 25.032 49.8 25.032C49.992 25.544 50.12 26.152 50.184 26.856C50.248 27.496 50.28 28.264 50.28 29.16C49 29.288 47.944 29.576 47.112 30.024C46.344 30.408 45.64 31.208 45 32.424C44.36 33.576 43.688 35.304 42.984 37.608C42.28 39.912 41.352 43.016 40.2 46.92C38.792 51.912 37.224 55.912 35.496 58.92C33.832 61.928 32.072 64.232 30.216 65.832C28.424 67.432 26.568 68.488 24.648 69C22.792 69.576 20.904 69.864 18.984 69.864ZM44.616 69.864C41.8 69.864 39.592 68.744 37.992 66.504C36.392 64.2 35.592 60.872 35.592 56.52L37.992 50.28C38.888 54.312 39.784 57.352 40.68 59.4C41.576 61.448 42.504 62.856 43.464 63.624C44.488 64.328 45.576 64.68 46.728 64.68C48.328 64.68 49.864 64.232 51.336 63.336C52.168 64.296 52.648 65.352 52.776 66.504C51.944 67.528 50.76 68.36 49.224 69C47.752 69.576 46.216 69.864 44.616 69.864Z" fill="#047ABA"/>
<path d="M74.6243 69.864C70.8483 69.864 68.0323 68.904 66.1763 66.984C64.3843 65 63.4883 61.832 63.4883 57.48V31.464C62.5283 31.144 61.5363 30.888 60.5123 30.696C59.4883 30.504 58.1763 30.344 56.5763 30.216C56.5763 29.384 56.6403 28.68 56.7683 28.104C56.8963 27.464 57.1203 26.76 57.4403 25.992H63.4883V13.32C64.7683 13 66.0163 12.488 67.2323 11.784C68.5123 11.08 69.6323 10.312 70.5923 9.48C71.2323 9.736 71.6483 10.12 71.8403 10.632C72.0323 11.144 72.1283 12.424 72.1283 14.472V25.992H84.6083C84.6083 26.632 84.5443 27.336 84.4163 28.104C84.2883 28.808 84.0643 29.512 83.7443 30.216C81.4403 30.344 79.3283 30.504 77.4083 30.696C75.4883 30.888 73.7283 31.144 72.1283 31.464V55.464C72.1283 57.576 72.3523 59.336 72.8003 60.744C73.2483 62.088 73.8883 63.08 74.7203 63.72C75.5523 64.36 76.5443 64.68 77.6963 64.68C79.0403 64.68 80.1923 64.488 81.1523 64.104C82.1763 63.72 83.1363 63.144 84.0323 62.376C84.8643 63.336 85.3443 64.392 85.4723 65.544C84.3843 66.76 82.8163 67.784 80.7683 68.616C78.7203 69.448 76.6723 69.864 74.6243 69.864ZM135.929 56.808C135.929 60.136 136.377 62.376 137.273 63.528C138.233 64.616 139.673 65.16 141.593 65.16C141.785 65.736 141.913 66.376 141.977 67.08C142.041 67.72 142.073 68.456 142.073 69.288C140.665 69.224 139.065 69.16 137.273 69.096C135.481 69.032 133.593 69 131.609 69C130.265 69 128.889 69 127.481 69C126.137 69.064 124.825 69.096 123.545 69.096C122.329 69.16 121.209 69.224 120.185 69.288C120.185 68.456 120.217 67.688 120.281 66.984C120.345 66.28 120.473 65.672 120.665 65.16C122.969 65.16 124.633 64.584 125.657 63.432C126.745 62.216 127.289 60.008 127.289 56.808V42.216C127.289 37.672 126.457 34.6 124.793 33C123.129 31.336 120.985 30.504 118.361 30.504C116.697 30.504 115.033 31.048 113.369 32.136C111.705 33.16 110.297 34.856 109.145 37.224C108.057 39.528 107.513 42.632 107.513 46.536V56.808C107.513 60.008 107.993 62.216 108.953 63.432C109.913 64.584 111.641 65.16 114.137 65.16C114.329 65.736 114.457 66.376 114.521 67.08C114.585 67.72 114.617 68.456 114.617 69.288C113.721 69.224 112.633 69.16 111.353 69.096C110.073 69.096 108.729 69.064 107.321 69C105.913 69 104.537 69 103.193 69C101.849 69 100.473 69 99.0645 69C97.6565 69.064 96.3125 69.096 95.0325 69.096C93.7525 69.16 92.6645 69.224 91.7685 69.288C91.7685 68.456 91.8005 67.688 91.8645 66.984C91.9285 66.28 92.0565 65.672 92.2485 65.16C94.7445 65.16 96.4725 64.584 97.4325 63.432C98.3925 62.216 98.8725 60.008 98.8725 56.808V37.8L107.513 28.392C107.513 29.16 107.481 30.024 107.417 30.984C107.353 31.944 107.161 32.968 106.841 34.056C107.033 33.736 107.225 33.384 107.417 33C107.609 32.552 107.897 32.072 108.281 31.56C109.305 30.088 111.033 28.584 113.465 27.048C115.897 25.448 118.809 24.648 122.201 24.648C124.633 24.648 126.873 25.16 128.921 26.184C131.033 27.144 132.729 28.776 134.009 31.08C135.289 33.32 135.929 36.392 135.929 40.296V56.808ZM98.8725 13.8C98.8725 12.328 98.7125 11.08 98.3925 10.056C98.1365 9.032 97.4965 8.264 96.4725 7.752C95.4485 7.24 93.8485 6.984 91.6725 6.984C91.6725 6.28 91.7365 5.64 91.8645 5.064C91.9925 4.488 92.2165 3.944 92.5365 3.432C93.4965 3.432 94.8405 3.272 96.5685 2.952C98.3605 2.632 100.089 2.248 101.753 1.8C103.417 1.288 104.633 0.743999 105.401 0.167999C105.977 0.359997 106.457 0.743996 106.841 1.32C107.289 1.896 107.513 2.792 107.513 4.008V17.352H98.8725V13.8ZM98.8725 13.8H107.513V28.392L98.8725 39.24V13.8ZM169.692 69.864C165.148 69.864 161.372 68.84 158.364 66.792C155.356 64.744 153.084 61.992 151.548 58.536C150.076 55.016 149.34 51.176 149.34 47.016C149.34 42.92 150.14 39.144 151.74 35.688C153.34 32.232 155.612 29.448 158.556 27.336C161.564 25.224 165.116 24.168 169.212 24.168C173.372 24.168 176.7 25.064 179.196 26.856C181.756 28.648 183.644 31.048 184.86 34.056C186.14 37.064 186.908 40.392 187.164 44.04C186.908 45.32 186.428 46.408 185.724 47.304C184.636 47.304 183.004 47.304 180.828 47.304C178.652 47.304 176.188 47.336 173.436 47.4C170.684 47.4 167.868 47.464 164.988 47.592C162.108 47.656 159.388 47.752 156.828 47.88V42.984H177.18C177.18 38.76 176.412 35.336 174.876 32.712C173.34 30.088 171.164 28.776 168.348 28.776C166.812 28.776 165.308 29.256 163.836 30.216C162.364 31.112 161.148 32.744 160.188 35.112C159.228 37.48 158.748 40.776 158.748 45C158.748 48.136 159.132 51.208 159.9 54.216C160.732 57.16 162.14 59.624 164.124 61.608C166.172 63.528 169.052 64.488 172.764 64.488C174.876 64.488 176.956 64.04 179.004 63.144C181.052 62.184 182.876 60.776 184.476 58.92C184.988 59.24 185.468 59.688 185.916 60.264C186.364 60.84 186.652 61.384 186.78 61.896C184.604 64.776 182.076 66.824 179.196 68.04C176.38 69.256 173.212 69.864 169.692 69.864ZM201.625 48.456V37.8C201.625 36.328 201.465 35.112 201.145 34.152C200.825 33.128 200.153 32.36 199.129 31.848C198.105 31.336 196.537 31.048 194.425 30.984C194.425 30.28 194.489 29.64 194.617 29.064C194.745 28.488 194.969 27.944 195.289 27.432C197.273 27.304 199.545 26.92 202.105 26.28C204.665 25.64 206.681 24.936 208.153 24.168C208.729 24.36 209.209 24.776 209.593 25.416C210.041 25.992 210.265 26.984 210.265 28.392L201.625 48.456ZM238.681 56.808C238.681 60.136 239.129 62.376 240.025 63.528C240.985 64.616 242.425 65.16 244.345 65.16C244.537 65.736 244.665 66.376 244.729 67.08C244.793 67.72 244.825 68.456 244.825 69.288C243.417 69.224 241.817 69.16 240.025 69.096C238.233 69.032 236.345 69 234.361 69C233.081 69 231.737 69 230.329 69C228.921 69.064 227.577 69.096 226.297 69.096C225.017 69.16 223.897 69.224 222.937 69.288C222.937 68.456 222.969 67.688 223.033 66.984C223.097 66.28 223.225 65.672 223.417 65.16C225.721 65.16 227.385 64.584 228.409 63.432C229.497 62.216 230.041 60.008 230.041 56.808V42.216C230.041 37.672 229.177 34.6 227.449 33C225.785 31.336 223.673 30.504 221.113 30.504C219.449 30.504 217.785 31.048 216.121 32.136C214.457 33.16 213.049 34.856 211.897 37.224C210.809 39.528 210.265 42.632 210.265 46.536V56.808C210.265 60.008 210.745 62.216 211.705 63.432C212.665 64.584 214.393 65.16 216.889 65.16C217.081 65.736 217.209 66.376 217.273 67.08C217.337 67.72 217.369 68.456 217.369 69.288C216.473 69.224 215.385 69.16 214.105 69.096C212.825 69.096 211.449 69.064 209.977 69C208.569 69 207.225 69 205.945 69C204.665 69 203.321 69 201.913 69C200.505 69.064 199.161 69.096 197.881 69.096C196.601 69.16 195.481 69.224 194.521 69.288C194.521 68.456 194.553 67.688 194.617 66.984C194.681 66.28 194.809 65.672 195.001 65.16C197.497 65.16 199.225 64.584 200.185 63.432C201.145 62.216 201.625 60.008 201.625 56.808V37.8L210.265 28.392C210.265 29.16 210.201 30.024 210.073 30.984C210.009 31.944 209.849 32.968 209.593 34.056C209.785 33.736 209.977 33.384 210.169 33C210.361 32.552 210.649 32.072 211.033 31.56C212.121 30.088 213.849 28.584 216.217 27.048C218.649 25.448 221.561 24.648 224.953 24.648C227.385 24.648 229.625 25.16 231.673 26.184C233.785 27.144 235.481 28.776 236.761 31.08C238.041 33.32 238.681 36.392 238.681 40.296V56.808ZM282.33 27.528C282.266 29.064 282.202 30.696 282.138 32.424C282.138 34.152 282.266 35.848 282.522 37.512C281.882 37.896 281.146 38.184 280.314 38.376C279.482 38.568 278.618 38.664 277.722 38.664C277.594 36.872 277.05 35.176 276.09 33.576C275.194 31.976 273.978 30.664 272.442 29.64C270.906 28.616 269.082 28.104 266.97 28.104C264.986 28.104 263.386 28.584 262.17 29.544C261.018 30.504 260.442 31.784 260.442 33.384C260.442 34.472 260.666 35.432 261.114 36.264C261.626 37.096 262.682 37.992 264.282 38.952C265.882 39.848 268.41 40.968 271.866 42.312C275.322 43.592 278.042 44.872 280.026 46.152C282.01 47.432 283.418 48.872 284.25 50.472C285.082 52.072 285.498 54.024 285.498 56.328C285.498 59.016 284.73 61.384 283.194 63.432C281.658 65.48 279.546 67.08 276.858 68.232C274.234 69.32 271.258 69.864 267.93 69.864C264.09 69.864 261.018 69.576 258.714 69C256.474 68.36 254.266 67.464 252.09 66.312C252.218 65.288 252.282 64.04 252.282 62.568C252.346 61.096 252.346 59.624 252.282 58.152C252.282 56.68 252.25 55.432 252.186 54.408C252.698 54.024 253.402 53.768 254.298 53.64C255.258 53.448 256.218 53.352 257.178 53.352C257.626 57.384 258.842 60.392 260.826 62.376C262.874 64.36 265.562 65.352 268.89 65.352C271.514 65.352 273.53 64.776 274.938 63.624C276.41 62.472 277.146 61 277.146 59.208C277.146 58.056 276.858 57.064 276.282 56.232C275.77 55.4 274.778 54.568 273.306 53.736C271.834 52.904 269.658 51.912 266.778 50.76C263.322 49.352 260.538 48.04 258.426 46.824C256.378 45.608 254.874 44.168 253.914 42.504C253.018 40.84 252.57 38.728 252.57 36.168C252.57 34.12 253.082 32.36 254.106 30.888C255.13 29.352 256.442 28.104 258.042 27.144C259.706 26.12 261.466 25.384 263.322 24.936C265.178 24.424 266.906 24.168 268.506 24.168C271.386 24.168 273.914 24.456 276.09 25.032C278.266 25.608 280.346 26.44 282.33 27.528ZM310.913 69.384C306.625 69.384 303.265 68.136 300.833 65.64C298.401 63.144 297.185 58.696 297.185 52.296V37.8C297.185 35.56 296.865 33.896 296.225 32.808C295.585 31.72 293.793 31.112 290.849 30.984C290.849 30.28 290.881 29.672 290.945 29.16C291.009 28.584 291.201 28.008 291.521 27.432C293.505 27.304 295.649 26.92 297.953 26.28C300.321 25.64 302.241 24.936 303.713 24.168C304.289 24.36 304.769 24.776 305.153 25.416C305.601 25.992 305.825 26.984 305.825 28.392V50.184C305.825 54.536 306.401 57.864 307.553 60.168C308.705 62.408 310.785 63.528 313.793 63.528C316.929 63.528 319.585 62.184 321.761 59.496C323.937 56.808 325.025 52.68 325.025 47.112V37.32C325.025 35.08 324.609 33.416 323.777 32.328C322.945 31.176 320.961 30.568 317.825 30.504C317.825 29.8 317.857 29.192 317.921 28.68C317.985 28.104 318.177 27.528 318.497 26.952C320.993 26.824 323.425 26.504 325.793 25.992C328.225 25.48 330.145 24.872 331.553 24.168C332.129 24.36 332.609 24.776 332.993 25.416C333.441 25.992 333.665 26.984 333.665 28.392V56.232L326.177 59.784C325.857 60.68 325.409 61.512 324.833 62.28C324.257 63.048 323.617 63.784 322.913 64.488C321.249 66.152 319.489 67.4 317.633 68.232C315.777 69 313.537 69.384 310.913 69.384ZM328.097 69.864C327.457 69.544 326.881 69.096 326.369 68.52C325.921 67.944 325.697 66.536 325.697 64.296C325.697 63.592 325.729 62.6 325.793 61.32C325.921 60.04 326.209 58.248 326.657 55.944H333.665C333.665 57.48 333.793 58.728 334.049 59.688C334.305 60.648 334.849 61.352 335.681 61.8C336.513 62.248 337.825 62.472 339.617 62.472C339.617 63.112 339.585 63.848 339.521 64.68C339.457 65.512 339.297 66.248 339.041 66.888C337.441 67.016 335.585 67.336 333.473 67.848C331.361 68.36 329.569 69.032 328.097 69.864ZM362.796 54.888C362.796 57.64 363.084 59.752 363.66 61.224C364.236 62.696 365.132 63.688 366.348 64.2C367.628 64.712 369.292 65.032 371.34 65.16C371.532 65.672 371.66 66.28 371.724 66.984C371.788 67.688 371.82 68.456 371.82 69.288C370.86 69.224 369.708 69.16 368.364 69.096C367.084 69.096 365.676 69.064 364.14 69C362.668 69 361.196 69 359.724 69C357.484 69 355.116 69.032 352.62 69.096C350.124 69.16 348.268 69.224 347.052 69.288C347.052 68.456 347.084 67.688 347.148 66.984C347.212 66.28 347.34 65.672 347.532 65.16C349.196 65.032 350.508 64.744 351.468 64.296C352.492 63.784 353.196 62.952 353.58 61.8C353.964 60.584 354.156 58.92 354.156 56.808V47.208H362.796V54.888ZM362.796 40.872V48.456H354.156V37.8L362.796 28.392C362.796 30.632 362.604 32.616 362.22 34.344C361.836 36.072 361.484 37.8 361.164 39.528L362.796 40.872ZM360.684 40.104C361.388 38.312 361.932 36.84 362.316 35.688C362.7 34.536 363.116 33.576 363.564 32.808C364.972 30.568 366.636 28.712 368.556 27.24C370.476 25.768 372.684 25.032 375.18 25.032C377.612 25.032 379.82 25.8 381.804 27.336C381.612 28.36 381.452 29.544 381.324 30.888C381.26 32.232 381.196 33.576 381.132 34.92C381.132 36.264 381.132 37.512 381.132 38.664C380.556 38.856 379.756 39.048 378.732 39.24C377.772 39.432 376.748 39.528 375.66 39.528C375.532 36.456 375.02 34.44 374.124 33.48C373.292 32.52 372.236 32.04 370.956 32.04C369.804 32.04 368.588 32.68 367.308 33.96C366.092 35.176 365.036 36.808 364.14 38.856C363.244 40.904 362.796 43.176 362.796 45.672L360.684 40.104ZM354.156 48.456V37.8C354.156 36.328 353.996 35.112 353.676 34.152C353.356 33.128 352.684 32.36 351.66 31.848C350.636 31.336 349.068 31.048 346.956 30.984C346.956 30.28 347.02 29.64 347.148 29.064C347.276 28.488 347.5 27.944 347.82 27.432C349.804 27.304 352.076 26.92 354.636 26.28C357.196 25.64 359.212 24.936 360.684 24.168C361.26 24.36 361.74 24.776 362.124 25.416C362.572 25.992 362.796 26.984 362.796 28.392L354.156 48.456ZM407.911 69.864C403.367 69.864 399.591 68.84 396.583 66.792C393.575 64.744 391.303 61.992 389.767 58.536C388.295 55.016 387.559 51.176 387.559 47.016C387.559 42.92 388.359 39.144 389.959 35.688C391.559 32.232 393.831 29.448 396.775 27.336C399.783 25.224 403.335 24.168 407.431 24.168C411.591 24.168 414.919 25.064 417.415 26.856C419.975 28.648 421.863 31.048 423.079 34.056C424.359 37.064 425.127 40.392 425.383 44.04C425.127 45.32 424.647 46.408 423.943 47.304C422.855 47.304 421.223 47.304 419.047 47.304C416.871 47.304 414.407 47.336 411.655 47.4C408.903 47.4 406.087 47.464 403.207 47.592C400.327 47.656 397.607 47.752 395.047 47.88V42.984H415.399C415.399 38.76 414.631 35.336 413.095 32.712C411.559 30.088 409.383 28.776 406.567 28.776C405.031 28.776 403.527 29.256 402.055 30.216C400.583 31.112 399.367 32.744 398.407 35.112C397.447 37.48 396.967 40.776 396.967 45C396.967 48.136 397.351 51.208 398.119 54.216C398.951 57.16 400.359 59.624 402.343 61.608C404.391 63.528 407.271 64.488 410.983 64.488C413.095 64.488 415.175 64.04 417.223 63.144C419.271 62.184 421.095 60.776 422.695 58.92C423.207 59.24 423.687 59.688 424.135 60.264C424.583 60.84 424.871 61.384 424.999 61.896C422.823 64.776 420.295 66.824 417.415 68.04C414.599 69.256 411.431 69.864 407.911 69.864Z" fill="#4F545C"/>
</svg>
